<?xml version="1.0" standalone="no"?>
<!DOCTYPE svg PUBLIC "-//W3C//DTD SVG 20010904//EN"
 "http://www.w3.org/TR/2001/REC-SVG-20010904/DTD/svg10.dtd">
<svg version="1.0" xmlns="http://www.w3.org/2000/svg"
 width="500.000000pt" height="500.000000pt" viewBox="0 0 500.000000 500.000000"
 preserveAspectRatio="xMidYMid meet">

<g transform="translate(0.000000,500.000000) scale(0.100000,-0.100000)"
fill="#000000" stroke="none">
<path d="M2816 3294 c-23 -22 -20 -33 19 -68 51 -47 46 -103 -12 -134 -31 -17
-72 -15 -138 8 -71 25 -193 27 -256 5 -40 -14 -50 -14 -105 1 -95 25 -268 16
-354 -19 -138 -57 -260 -178 -336 -332 -56 -114 -112 -317 -120 -439 -20 -275
115 -491 386 -619 97 -46 173 -55 208 -24 10 9 32 17 49 17 17 0 36 7 43 15
17 21 15 75 -5 122 -23 53 -30 170 -16 245 7 35 26 91 43 124 32 66 115 164
139 164 8 0 22 -14 31 -30 21 -37 42 -46 76 -34 26 9 61 77 115 224 43 120 17
298 -63 428 -16 27 -30 54 -30 60 0 22 58 21 155 -3 55 -14 119 -25 143 -25
79 0 160 62 176 135 5 24 1 21 -19 -17 -57 -108 -132 -125 -308 -73 -63 19
-137 19 -162 1 -18 -13 -17 -14 7 -47 61 -81 108 -218 108 -313 0 -76 -23
-167 -56 -223 -13 -23 -24 -49 -24 -58 0 -28 -29 -73 -51 -80 -26 -9 -59 20
-59 51 0 17 12 32 40 50 22 15 40 33 40 41 0 10 -6 9 -27 -5 -16 -10 -54 -35
-85 -55 -93 -59 -170 -171 -199 -287 -19 -81 -15 -203 10 -275 12 -32 21 -69
21 -82 0 -44 -68 -54 -90 -13 -6 10 -28 40 -50 65 -45 52 -49 69 -20 85 27 14
81 90 74 102 -4 5 -14 -3 -24 -19 -44 -74 -145 -122 -231 -110 -21 3 -39 2
-39 -3 0 -21 72 -26 134 -9 33 9 41 8 48 -4 4 -9 28 -39 53 -68 45 -52 55 -82
34 -95 -44 -27 -210 33 -323 118 -113 85 -189 193 -221 319 -28 107 -17 282
29 439 46 154 89 247 160 336 88 112 209 190 334 214 78 16 223 8 275 -14 36
-16 41 -16 98 5 71 26 158 23 258 -10 71 -24 125 -17 161 19 42 42 38 110 -8
132 -34 16 -42 54 -13 63 36 11 74 -16 103 -75 29 -59 34 -58 18 2 -20 69
-104 112 -144 72z"/>
<path d="M1659 2518 c-36 -30 -84 -148 -76 -190 4 -26 6 -23 31 62 21 73 51
121 71 114 8 -3 22 -27 31 -53 l17 -46 111 -1 c61 0 122 -5 136 -11 22 -10 30
-6 72 34 27 27 52 43 61 40 16 -6 27 -50 27 -111 0 -22 5 -48 11 -56 8 -11 9
7 6 66 -8 134 -35 154 -107 83 l-41 -41 -70 12 c-38 7 -97 10 -131 8 -61 -3
-61 -3 -72 29 -12 34 -40 73 -54 73 -4 0 -15 -6 -23 -12z"/>
<path d="M2549 2131 c-20 -16 -21 -21 -10 -35 17 -21 34 -20 61 2 21 17 21 19
5 35 -21 22 -27 21 -56 -2z"/>
<path d="M2238 2135 c-2 -3 -1 -33 3 -67 4 -35 4 -91 0 -125 l-7 -63 28 0 c15
0 28 1 28 3 0 1 -7 20 -15 42 -8 22 -14 65 -14 95 0 52 1 54 16 35 8 -11 31
-53 50 -94 19 -40 38 -69 43 -65 4 5 15 29 23 54 9 25 22 61 30 80 13 29 17
32 23 17 3 -10 4 -52 0 -93 l-7 -74 38 0 38 0 -1 125 c-1 69 -4 128 -7 131 -2
3 -15 2 -28 -1 -18 -5 -31 -23 -53 -76 -33 -81 -40 -80 -82 12 -15 32 -30 59
-33 60 -3 0 -20 2 -37 4 -17 3 -33 2 -36 0z"/>
<path d="M3117 2134 c-3 -3 -3 -21 0 -40 5 -32 4 -34 -24 -34 -45 0 -75 -39
-81 -102 -3 -45 -1 -56 18 -73 20 -19 23 -19 51 -3 16 10 29 13 29 8 0 -6 17
-10 38 -10 l37 0 0 122 c0 71 -4 126 -10 130 -12 9 -49 10 -58 2z m1 -150 c-3
-29 -11 -60 -18 -69 -13 -16 -15 -15 -27 1 -15 21 -8 77 14 112 22 35 36 16
31 -44z"/>
<path d="M3442 2090 c-7 -11 -26 -23 -43 -27 -28 -5 -29 -7 -13 -24 13 -14 14
-30 9 -81 -8 -73 4 -94 49 -82 42 10 62 74 24 74 -21 0 -11 98 10 103 15 4 15
5 1 6 -12 1 -15 8 -11 26 5 30 -8 33 -26 5z m-7 -197 c-5 -15 -7 -15 -22 0
-14 13 -14 19 -3 32 12 15 14 15 23 0 5 -9 6 -23 2 -32z"/>
<path d="M2093 2064 c-26 -28 -59 -31 -91 -8 -19 13 -22 13 -22 1 0 -20 54
-41 84 -33 29 7 56 32 56 52 0 17 0 17 -27 -12z"/>
<path d="M2543 1970 l0 -90 31 0 31 0 0 90 0 90 -31 0 -31 0 0 -90z"/>
<path d="M2660 2042 c-19 -16 -20 -19 -7 -30 13 -11 12 -16 -9 -37 -29 -29
-31 -66 -4 -90 17 -16 24 -16 47 -6 24 11 26 14 10 22 -21 12 -22 52 -2 69 22
19 35 4 25 -31 -13 -45 -4 -59 41 -59 l38 0 -11 30 c-5 17 -8 45 -5 63 5 32
-7 66 -27 79 -20 14 -74 8 -96 -10z m78 -25 c3 -28 -4 -33 -27 -18 -8 5 -11
16 -6 30 9 29 29 21 33 -12z"/>
<path d="M2815 1979 c3 -94 16 -116 62 -104 15 4 46 7 68 6 l40 -2 0 90 0 91
-32 0 -33 0 -2 -62 c-1 -35 -1 -74 0 -88 1 -17 -1 -21 -7 -11 -6 9 -10 10 -16
2 -5 -9 -10 -9 -20 -1 -9 7 -10 22 -4 53 4 23 8 57 9 75 0 30 -2 32 -33 32
l-33 0 1 -81z"/>
<path d="M3239 2050 c-25 -15 -42 -65 -35 -103 11 -58 65 -88 118 -66 53 22
67 111 23 154 -25 26 -75 33 -106 15z m76 -21 c13 -39 -16 -139 -41 -139 -27
0 -24 83 5 138 15 28 28 28 36 1z"/>
<path d="M3535 2036 c-36 -36 -42 -73 -19 -115 26 -48 74 -63 112 -34 35 26
36 58 2 58 -21 0 -25 -4 -22 -27 3 -33 -22 -39 -38 -9 -16 30 -12 41 14 41 33
0 76 37 76 65 0 48 -84 62 -125 21z m75 -9 c0 -25 -26 -67 -41 -67 -14 0 -11
43 7 68 20 28 34 28 34 -1z"/>
<path d="M1660 2015 c36 -39 130 -30 130 12 0 14 -2 15 -17 1 -31 -26 -50 -27
-89 -7 -49 25 -52 24 -24 -6z"/>
<path d="M1874 2019 c-10 -17 12 -32 35 -24 29 9 27 35 -3 35 -14 0 -28 -5
-32 -11z"/>
</g>
</svg>
