<?xml version="1.0" standalone="no"?>
<!DOCTYPE svg PUBLIC "-//W3C//DTD SVG 20010904//EN"
 "http://www.w3.org/TR/2001/REC-SVG-20010904/DTD/svg10.dtd">
<svg version="1.0" xmlns="http://www.w3.org/2000/svg"
 width="500.000000pt" height="500.000000pt" viewBox="0 0 500.000000 500.000000"
 preserveAspectRatio="xMidYMid meet">

<g transform="translate(0.000000,500.000000) scale(0.100000,-0.100000)"
fill="#000000" stroke="none">
<path d="M3498 4020 c-14 -11 -28 -28 -30 -38 -9 -33 17 -78 57 -96 36 -17 65
-63 65 -103 0 -38 -42 -104 -79 -122 -70 -36 -106 -35 -231 4 -98 31 -134 37
-240 42 -122 5 -128 5 -219 -27 l-94 -32 -86 28 c-82 28 -95 29 -271 29 -209
0 -265 -10 -406 -75 -115 -53 -219 -127 -313 -221 -198 -199 -311 -431 -410
-838 -79 -323 -58 -626 60 -851 114 -218 322 -407 578 -524 189 -86 300 -97
358 -35 26 26 32 28 75 23 43 -6 50 -4 77 23 16 17 33 41 36 55 7 27 -12 114
-45 203 -16 44 -23 91 -27 175 -9 203 35 371 138 524 49 74 170 206 187 206 6
0 17 3 26 6 11 4 16 1 16 -10 0 -27 38 -93 62 -110 68 -48 154 10 189 128 12
39 38 103 59 141 64 118 85 207 85 370 0 120 -3 151 -24 220 -35 114 -83 225
-129 297 -55 88 -58 102 -27 116 40 19 104 14 211 -14 55 -14 124 -32 154 -39
74 -19 196 -19 251 0 63 22 147 98 175 159 31 67 34 209 5 272 -51 111 -166
167 -233 114z m105 -14 c74 -32 137 -142 137 -240 0 -97 -81 -215 -178 -258
-67 -30 -178 -28 -302 6 -231 64 -322 69 -377 22 l-26 -22 45 -60 c66 -88 92
-138 132 -254 48 -137 70 -263 61 -354 -11 -114 -43 -224 -94 -322 -27 -50
-51 -112 -55 -138 -6 -35 -17 -57 -45 -86 -41 -44 -57 -48 -101 -25 -20 10
-33 28 -41 55 -16 54 -2 83 53 111 50 25 98 67 98 86 0 21 -20 15 -57 -17 -19
-17 -63 -44 -98 -61 -179 -88 -347 -308 -406 -534 -20 -76 -24 -113 -23 -235
1 -131 4 -152 28 -220 61 -170 64 -211 15 -239 -42 -24 -95 -7 -124 39 -13 21
-50 67 -81 102 -31 35 -64 78 -73 96 -15 32 -15 34 4 44 36 19 141 133 152
165 9 25 9 34 -2 43 -12 10 -17 4 -31 -29 -23 -58 -128 -153 -201 -182 -48
-19 -76 -23 -170 -23 -80 0 -113 -4 -113 -12 0 -6 10 -14 23 -18 42 -11 184
-6 233 9 63 19 58 20 76 -18 9 -19 41 -60 70 -93 74 -81 88 -103 88 -142 0
-29 -5 -35 -37 -48 -62 -27 -152 -3 -346 90 -229 110 -454 337 -540 546 -72
174 -96 406 -62 611 49 299 159 614 279 801 117 182 306 343 496 421 199 82
475 88 658 14 59 -23 60 -23 95 -6 58 30 178 59 244 59 76 0 185 -22 281 -57
176 -63 328 11 326 160 -1 46 -6 62 -24 82 -13 14 -29 25 -35 25 -7 0 -24 10
-39 21 -34 27 -32 68 4 86 32 16 43 16 83 -1z"/>
<path d="M1437 2632 c-50 -52 -127 -250 -127 -327 0 -49 23 -20 41 51 35 142
99 264 138 264 27 0 42 -23 71 -108 24 -70 28 -77 51 -73 13 2 89 4 169 5 113
1 161 -3 218 -18 l74 -19 71 72 c70 69 95 91 108 91 19 0 38 -86 49 -219 5
-62 11 -115 14 -118 2 -3 10 -2 16 2 15 9 5 186 -15 271 -27 118 -64 122 -175
18 l-81 -77 -82 19 c-75 17 -263 23 -346 12 -20 -3 -25 3 -38 46 -24 82 -67
135 -109 136 -11 0 -32 -12 -47 -28z"/>
<path d="M2218 1846 c-39 -48 -86 -55 -150 -22 -60 31 -58 31 -58 6 0 -46 128
-77 190 -45 49 25 92 95 58 95 -7 0 -25 -15 -40 -34z"/>
<path d="M1425 1810 c-10 -16 20 -57 58 -80 21 -13 50 -20 84 -20 44 0 58 5
88 31 34 30 46 59 24 59 -6 0 -27 -13 -46 -30 -53 -47 -104 -40 -169 22 -21
20 -34 26 -39 18z"/>
<path d="M1844 1780 c-12 -5 -25 -13 -28 -18 -10 -16 23 -42 54 -42 35 0 80
34 65 49 -15 15 -67 22 -91 11z"/>
<path d="M2875 2076 c-16 -12 -18 -18 -9 -33 15 -24 35 -27 59 -9 16 12 18 18
9 33 -15 24 -35 27 -59 9z"/>
<path d="M2565 1950 l0 -130 26 0 26 0 -18 53 c-22 62 -25 131 -6 125 6 -2 30
-41 52 -86 22 -45 43 -81 46 -82 3 0 16 30 30 67 32 88 33 93 14 60 -9 -15
-19 -26 -23 -23 -4 2 -23 36 -42 75 -33 68 -35 71 -69 71 l-36 0 0 -130z"/>
<path d="M2786 2073 c-8 -9 -36 -72 -36 -82 0 -3 5 1 11 9 7 11 9 -13 7 -82
l-4 -98 36 0 37 0 -1 123 c0 72 -5 125 -11 129 -13 10 -30 10 -39 1z"/>
<path d="M3443 2038 c5 -36 4 -38 -22 -38 -68 0 -117 -109 -75 -168 19 -28 41
-28 72 1 20 17 24 18 19 5 -5 -15 0 -18 31 -18 l37 0 1 128 0 129 -34 0 c-34
0 -34 -1 -29 -39z m2 -69 c14 -44 -21 -139 -46 -123 -23 14 4 144 30 144 5 0
13 -9 16 -21z"/>
<path d="M3761 2025 c-13 -14 -31 -25 -41 -25 -17 0 -17 -3 -6 -25 10 -18 11
-39 4 -75 -12 -65 2 -94 40 -85 15 3 35 15 44 26 18 21 14 49 -6 49 -7 0 -10
17 -8 50 2 29 9 50 15 50 9 0 9 2 1 8 -7 4 -14 17 -15 29 l-4 22 -24 -24z m9
-186 c0 -17 -23 -20 -38 -6 -13 14 -13 18 -2 32 13 16 15 15 27 -1 7 -10 13
-21 13 -25z"/>
<path d="M2865 1910 l0 -90 39 0 c31 0 37 3 32 16 -3 9 -6 49 -6 90 l0 74 -32
0 -33 0 0 -90z"/>
<path d="M2992 1984 c-18 -13 -21 -19 -11 -30 10 -12 8 -19 -10 -37 -23 -25
-27 -57 -11 -88 13 -23 39 -25 66 -4 17 13 17 14 2 15 -23 0 -24 48 -3 76 20
26 36 2 24 -38 -12 -44 -2 -58 42 -58 37 0 38 1 29 26 -6 14 -10 47 -10 74 0
31 -6 54 -16 64 -20 21 -73 20 -102 0z m74 -19 c8 -33 4 -36 -32 -26 -16 5
-24 10 -17 10 6 1 15 10 18 21 9 28 23 25 31 -5z"/>
<path d="M3145 1920 c1 -47 7 -86 15 -95 14 -16 46 -20 54 -6 3 4 27 6 53 4
l48 -5 0 91 0 91 -32 0 -33 0 -2 -62 c-1 -35 -1 -74 0 -88 1 -17 -1 -21 -7
-11 -6 9 -11 10 -15 2 -4 -6 -12 -11 -18 -11 -7 0 -8 27 -3 85 l7 85 -34 0
-34 0 1 -80z"/>
<path d="M3551 1974 c-30 -38 -28 -103 2 -136 20 -21 31 -25 62 -21 22 2 45 9
52 14 19 16 35 76 28 101 -21 69 -104 93 -144 42z m88 -28 c2 -51 -23 -120
-41 -114 -20 7 -21 67 -3 115 22 56 41 56 44 -1z"/>
<path d="M3856 1974 c-20 -20 -26 -37 -26 -69 0 -57 34 -89 95 -90 24 0 43 2
43 5 -1 3 2 13 6 23 12 27 -1 49 -26 45 -23 -4 -25 -9 -13 -40 6 -14 2 -18
-14 -18 -13 0 -25 9 -30 23 -11 29 -7 35 35 43 21 4 41 16 51 30 14 22 14 26
-1 49 -23 36 -83 35 -120 -1z m77 4 c5 -17 -11 -60 -26 -70 -30 -19 -34 -5
-13 47 15 36 31 45 39 23z"/>
</g>
</svg>
