<?xml version="1.0" standalone="no"?>
<!DOCTYPE svg PUBLIC "-//W3C//DTD SVG 20010904//EN"
 "http://www.w3.org/TR/2001/REC-SVG-20010904/DTD/svg10.dtd">
<svg version="1.0" xmlns="http://www.w3.org/2000/svg"
 width="570.000000pt" height="624.000000pt" viewBox="0 0 570.000000 624.000000"
 preserveAspectRatio="xMidYMid meet">

<g transform="translate(0.000000,624.000000) scale(0.100000,-0.100000)"
fill="#000000" stroke="none">
<path d="M4715 5647 c-48 -27 -78 -79 -70 -122 9 -46 53 -102 98 -124 60 -29
92 -60 111 -109 21 -56 20 -75 -6 -151 -26 -74 -72 -125 -142 -160 -84 -41
-255 -40 -350 4 -44 20 -230 71 -301 83 -207 35 -399 22 -571 -40 -145 -51
-182 -52 -324 -9 -58 18 -121 37 -141 42 -121 29 -504 32 -669 5 -241 -40
-478 -138 -690 -285 -179 -124 -387 -329 -503 -493 -225 -322 -335 -579 -482
-1133 -96 -362 -110 -466 -109 -785 1 -291 16 -397 90 -616 40 -122 133 -320
169 -364 7 -8 33 -43 56 -77 117 -165 335 -386 477 -482 20 -14 42 -29 47 -33
16 -13 86 -59 130 -85 41 -24 302 -153 310 -153 2 0 30 -12 61 -26 134 -61
162 -67 311 -71 159 -4 170 -1 230 66 l32 36 94 0 c87 0 96 2 130 28 75 57 91
135 57 271 -12 49 -35 118 -50 155 -54 126 -86 378 -69 551 16 174 44 330 69
385 5 11 18 47 30 80 19 54 43 102 110 220 84 149 300 387 385 427 28 12 53
24 58 26 4 2 7 -6 7 -18 0 -41 60 -168 88 -186 15 -10 33 -23 40 -30 19 -19
99 -28 141 -15 43 12 124 89 152 144 11 21 27 70 35 110 10 46 37 110 72 177
101 190 100 188 153 380 6 19 15 51 20 70 6 19 13 125 16 235 6 211 -3 306
-36 405 -10 30 -31 96 -46 145 -30 100 -94 259 -129 320 -12 22 -55 93 -94
157 -40 65 -72 119 -72 122 0 2 21 16 46 30 68 38 158 36 344 -9 80 -19 154
-39 165 -44 11 -5 74 -22 140 -37 101 -24 142 -28 260 -28 132 0 144 1 210 29
131 54 255 165 313 280 62 125 58 396 -9 525 -28 56 -120 146 -176 174 -70 35
-160 36 -218 3z m230 -62 c130 -89 212 -301 184 -477 -14 -89 -73 -194 -153
-273 -120 -118 -240 -162 -416 -151 -107 6 -185 22 -465 96 -252 66 -396 65
-495 -2 -58 -40 -60 -52 -14 -100 129 -136 244 -362 328 -641 53 -176 61 -235
60 -417 -2 -283 -62 -502 -194 -705 -31 -47 -45 -83 -60 -155 -26 -120 -50
-170 -108 -220 -40 -34 -54 -40 -92 -40 -81 0 -142 58 -156 147 -10 70 16 110
106 158 95 51 183 133 178 166 -5 40 -33 33 -87 -21 -34 -34 -81 -66 -143 -96
-104 -51 -109 -54 -193 -108 -166 -109 -378 -370 -496 -612 -56 -114 -109
-307 -129 -468 -16 -126 -8 -415 14 -508 9 -36 39 -128 66 -203 59 -158 67
-204 47 -260 -28 -79 -111 -106 -205 -65 -39 17 -52 30 -75 73 -15 29 -77 109
-138 178 -89 100 -159 198 -159 222 0 2 39 33 86 68 96 71 175 159 210 234 27
58 30 88 9 105 -21 17 -30 8 -69 -74 -27 -56 -53 -89 -111 -145 -99 -93 -163
-134 -277 -173 -90 -32 -98 -32 -248 -31 -85 1 -171 3 -190 5 -30 2 -35 0 -38
-19 -4 -30 19 -40 127 -54 111 -15 249 -2 365 35 l77 24 14 -34 c22 -54 68
-114 161 -215 104 -114 144 -178 144 -236 0 -33 -5 -46 -26 -62 -40 -32 -100
-44 -179 -37 -89 7 -127 19 -303 95 -357 153 -524 262 -758 496 -299 298 -438
558 -511 955 -25 137 -25 530 0 689 37 234 112 527 216 838 225 679 692 1194
1264 1392 353 123 852 114 1135 -21 l63 -29 92 39 c310 133 530 132 927 -5
204 -70 370 -51 492 56 75 67 105 152 92 267 -9 90 -33 121 -123 164 -78 38
-100 64 -101 116 -1 88 151 111 255 39z"/>
<path d="M1014 3173 c-88 -81 -196 -319 -239 -530 -18 -88 -14 -123 15 -123
24 0 33 21 50 110 37 206 183 510 245 510 22 0 65 -41 87 -83 12 -23 36 -89
54 -147 18 -58 39 -109 47 -114 11 -7 33 -5 69 7 168 53 461 37 736 -39 l64
-18 94 101 c85 91 203 193 224 193 16 0 52 -91 65 -167 8 -43 19 -154 25 -248
12 -167 18 -195 47 -195 24 0 28 36 21 172 -25 434 -94 568 -240 467 -18 -12
-85 -74 -149 -136 l-115 -113 -50 14 c-195 57 -480 80 -641 52 -51 -9 -98 -17
-104 -18 -6 -2 -23 38 -38 87 -53 175 -109 245 -196 245 -30 0 -48 -7 -71 -27z"/>
<path d="M2430 1780 c-26 -51 -89 -97 -145 -106 -61 -9 -140 12 -181 48 -41
36 -79 36 -79 -2 0 -29 72 -83 133 -100 50 -13 136 -13 186 2 82 24 187 162
145 189 -26 16 -39 9 -59 -31z"/>
<path d="M982 1688 c-21 -21 -13 -44 29 -92 63 -71 131 -100 233 -97 69 1 150
42 182 91 52 78 6 108 -56 38 -85 -97 -209 -91 -311 14 -31 32 -59 58 -61 58
-2 0 -9 -5 -16 -12z"/>
<path d="M1710 1622 c-42 -20 -49 -43 -21 -71 27 -27 61 -35 115 -27 82 13
122 67 74 100 -31 22 -124 21 -168 -2z"/>
</g>
</svg>
